<svg width="25" height="25" viewBox="0 0 25 25" fill="none" xmlns="http://www.w3.org/2000/svg">
<path fill-rule="evenodd" clip-rule="evenodd" d="M24.5 12.4855C24.5 15.6681 23.2357 18.7204 20.9853 20.9708C18.7348 23.2212 15.6826 24.4855 12.5 24.4855C9.3174 24.4855 6.26516 23.2212 4.01472 20.9708C1.76428 18.7204 0.5 15.6681 0.5 12.4855C0.5 9.30291 1.76428 6.25066 4.01472 4.00022C6.26516 1.74979 9.3174 0.485504 12.5 0.485504C15.6826 0.485504 18.7348 1.74979 20.9853 4.00022C23.2357 6.25066 24.5 9.30291 24.5 12.4855ZM13.25 7.9855C13.25 7.78659 13.171 7.59583 13.0303 7.45517C12.8897 7.31452 12.6989 7.2355 12.5 7.2355C12.3011 7.2355 12.1103 7.31452 11.9697 7.45517C11.829 7.59583 11.75 7.78659 11.75 7.9855V15.175L8.531 11.9545C8.46127 11.8848 8.37848 11.8295 8.28738 11.7917C8.19627 11.754 8.09862 11.7346 8 11.7346C7.90138 11.7346 7.80373 11.754 7.71262 11.7917C7.62152 11.8295 7.53873 11.8848 7.469 11.9545C7.39927 12.0242 7.34395 12.107 7.30621 12.1981C7.26848 12.2892 7.24905 12.3869 7.24905 12.4855C7.24905 12.5841 7.26848 12.6818 7.30621 12.7729C7.34395 12.864 7.39927 12.9468 7.469 13.0165L11.969 17.5165C12.0387 17.5863 12.1214 17.6418 12.2125 17.6796C12.3037 17.7174 12.4013 17.7368 12.5 17.7368C12.5987 17.7368 12.6963 17.7174 12.7874 17.6796C12.8786 17.6418 12.9613 17.5863 13.031 17.5165L17.531 13.0165C17.6718 12.8757 17.7509 12.6847 17.7509 12.4855C17.7509 12.2863 17.6718 12.0953 17.531 11.9545C17.3902 11.8137 17.1992 11.7346 17 11.7346C16.8008 11.7346 16.6098 11.8137 16.469 11.9545L13.25 15.175V7.9855Z" fill="white"/>
</svg>
