<svg xmlns="http://www.w3.org/2000/svg" width="67.5" height="60" viewBox="0 0 67.5 60">
  <path id="Icon_awesome-cart-plus" data-name="Icon awesome-cart-plus" d="M59.147,37.5H24.794l.767,3.75H57.016a2.813,2.813,0,0,1,2.743,3.436l-.647,2.845a6.565,6.565,0,1,1-7.453,1.219H27.091a6.562,6.562,0,1,1-7.857-1L11,7.5H2.812A2.812,2.812,0,0,1,0,4.687V2.812A2.812,2.812,0,0,1,2.812,0H14.828a2.813,2.813,0,0,1,2.755,2.249L18.657,7.5H64.686a2.813,2.813,0,0,1,2.743,3.436l-5.54,24.375A2.812,2.812,0,0,1,59.147,37.5ZM47.812,19.687H42.187V15a1.875,1.875,0,0,0-1.875-1.875H38.437A1.875,1.875,0,0,0,36.562,15v4.687H30.937a1.875,1.875,0,0,0-1.875,1.875v1.875a1.875,1.875,0,0,0,1.875,1.875h5.625V30a1.875,1.875,0,0,0,1.875,1.875h1.875A1.875,1.875,0,0,0,42.187,30V25.312h5.625a1.875,1.875,0,0,0,1.875-1.875V21.562A1.875,1.875,0,0,0,47.812,19.687Z" fill="#f08b43"/>
</svg>
